<?xml version="1.0" encoding="utf-8"?>
<!-- Generator: Adobe Illustrator 16.0.0, SVG Export Plug-In . SVG Version: 6.00 Build 0)  -->
<!DOCTYPE svg PUBLIC "-//W3C//DTD SVG 1.1//EN" "http://www.w3.org/Graphics/SVG/1.1/DTD/svg11.dtd">
<svg version="1.1" id="Layer_1" xmlns="http://www.w3.org/2000/svg" xmlns:xlink="http://www.w3.org/1999/xlink" x="0px" y="0px"
	 width="27px" height="18px" viewBox="0 0 27 18" enable-background="new 0 0 27 18" xml:space="preserve">
<path d="M25.014,9c-0.023-0.295-0.011-0.593-0.063-0.886c0.695-0.317,1.408-0.712,2.05-1.17c-0.1-0.439-0.239-0.867-0.406-1.286
	c-0.812-0.053-1.638-0.005-2.398,0.11c-0.161-0.249-0.292-0.517-0.482-0.747c-0.17-0.244-0.361-0.469-0.567-0.684
	c0.396-0.685,0.702-1.387,0.969-2.151c-0.341-0.29-0.695-0.566-1.078-0.8c-0.695,0.441-1.32,0.939-1.883,1.503
	C20.891,2.75,20.607,2.66,20.33,2.557c-0.283-0.083-0.571-0.165-0.861-0.216c-0.089-0.759-0.248-1.555-0.484-2.31
	c-0.446-0.032-0.895-0.046-1.341-0.009c-0.304,0.749-0.513,1.553-0.639,2.319c-0.292,0.051-0.58,0.132-0.861,0.216
	C15.864,2.66,15.581,2.75,15.318,2.89c-0.525-0.578-1.11-1.111-1.748-1.584c-0.39,0.222-0.744,0.501-1.098,0.776
	c0.219,0.808,0.487,1.543,0.854,2.255c-0.204,0.215-0.397,0.439-0.567,0.684c-0.188,0.229-0.32,0.498-0.48,0.747
	c-0.75-0.152-1.537-0.24-2.346-0.257C9.774,5.933,9.61,6.353,9.512,6.792c0.623,0.521,1.315,0.965,2.012,1.322
	C11.47,8.407,11.482,8.705,11.459,9c0.023,0.295,0.011,0.595,0.064,0.886c-0.696,0.317-1.41,0.713-2.05,1.17
	c0.099,0.439,0.238,0.867,0.404,1.286c0.813,0.053,1.638,0.005,2.4-0.109c0.16,0.249,0.292,0.517,0.48,0.746
	c0.17,0.244,0.363,0.469,0.567,0.683c-0.395,0.686-0.701,1.386-0.969,2.153c0.341,0.288,0.699,0.565,1.082,0.798
	c0.692-0.44,1.318-0.939,1.88-1.503c0.263,0.141,0.546,0.23,0.825,0.333c0.281,0.084,0.569,0.165,0.861,0.217
	c0.087,0.759,0.247,1.555,0.484,2.31c0.446,0.033,0.893,0.047,1.341,0.009c0.301-0.748,0.512-1.553,0.639-2.318
	c0.29-0.052,0.578-0.133,0.861-0.217c0.277-0.103,0.561-0.192,0.823-0.333c0.526,0.579,1.109,1.11,1.749,1.585
	c0.391-0.224,0.745-0.502,1.098-0.776c-0.22-0.809-0.486-1.543-0.854-2.257c0.206-0.214,0.397-0.438,0.567-0.683
	c0.19-0.229,0.321-0.497,0.482-0.746c0.75,0.152,1.535,0.239,2.344,0.255c0.161-0.42,0.323-0.841,0.42-1.281
	c-0.621-0.519-1.313-0.963-2.009-1.321C25.003,9.595,24.99,9.295,25.014,9z M21.616,11.454c-0.506,0.72-1.268,1.244-2.089,1.521
	c-0.826,0.269-1.757,0.269-2.584,0c-0.819-0.277-1.582-0.802-2.086-1.521C14.331,10.746,14.068,9.882,14.054,9
	c0.015-0.882,0.277-1.745,0.804-2.452c0.504-0.722,1.267-1.245,2.086-1.523c0.827-0.269,1.758-0.269,2.584,0
	c0.821,0.278,1.583,0.801,2.089,1.523c0.526,0.707,0.789,1.57,0.802,2.452C22.405,9.882,22.143,10.746,21.616,11.454z"/>
<polygon points="3.138,10.683 6.276,7.543 0,7.543 "/>
</svg>
